<?xml version="1.0" standalone="no"?>
<!DOCTYPE svg PUBLIC "-//W3C//DTD SVG 20010904//EN"
 "http://www.w3.org/TR/2001/REC-SVG-20010904/DTD/svg10.dtd">
<svg version="1.0" xmlns="http://www.w3.org/2000/svg"
 width="512.000000pt" height="512.000000pt" viewBox="0 0 512.000000 512.000000"
 preserveAspectRatio="xMidYMid meet">
<metadata>
Created by potrace 1.14, written by Peter Selinger 2001-2017
</metadata>
<g transform="translate(0.000000,512.000000) scale(0.100000,-0.100000)"
fill="#000000" stroke="none">
<path d="M3028 4301 c-89 -18 -158 -105 -158 -200 0 -183 220 -271 347 -139
138 143 6 378 -189 339z m90 -151 c29 -27 28 -65 -4 -96 -19 -20 -31 -24 -51
-19 -37 9 -56 32 -56 68 0 58 68 87 111 47z"/>
<path d="M3563 4090 c-50 -20 -53 -73 -6 -125 l30 -33 -30 -32 c-82 -87 8
-178 97 -99 l35 30 32 -30 c18 -17 37 -32 43 -32 48 -5 86 24 86 67 0 13 -14
39 -31 59 l-31 35 31 35 c58 67 28 134 -57 126 -7 0 -26 -15 -44 -31 l-32 -31
-30 30 c-36 34 -63 43 -93 31z"/>
<path d="M668 3621 c-7 -2 -22 -12 -33 -22 -19 -17 -20 -30 -20 -453 0 -423 1
-436 20 -456 20 -20 31 -20 1140 -20 1114 -1 1119 -1 1139 20 20 20 21 31 21
452 0 430 0 433 -21 458 l-22 25 -1106 0 c-608 0 -1111 -2 -1118 -4z m2127
-476 l0 -340 -1020 0 -1020 0 -3 341 -2 341 1022 -1 1023 -1 0 -340z"/>
<path d="M910 3400 c-11 -11 -20 -28 -20 -37 -4 -148 -1 -433 4 -449 7 -23 44
-44 70 -40 24 3 56 33 57 53 1 10 2 47 3 83 l1 65 65 0 65 0 5 -83 c4 -73 8
-86 29 -103 16 -13 31 -17 50 -13 55 13 56 16 58 265 l2 231 -24 24 c-31 31
-59 30 -90 -1 -22 -21 -25 -33 -25 -102 l0 -78 -65 -1 c-40 -1 -66 3 -66 10
-1 6 -3 36 -4 66 -1 30 -3 63 -4 73 -2 26 -38 57 -66 57 -14 0 -34 -9 -45 -20z"/>
<path d="M1393 3405 c-29 -20 -35 -70 -11 -97 13 -15 31 -22 63 -23 25 -1 48
-4 51 -7 2 -3 5 -86 6 -184 1 -172 2 -178 24 -201 17 -17 31 -22 51 -19 55 10
58 21 63 223 l5 186 46 2 c55 2 64 7 77 43 12 36 -1 70 -33 82 -15 6 -93 10
-173 10 -114 0 -152 -3 -169 -15z"/>
<path d="M1866 3397 c-23 -23 -23 -25 -22 -255 1 -252 2 -257 59 -268 20 -3
34 2 52 20 24 24 25 30 25 157 0 127 1 132 18 116 23 -21 76 -22 96 -2 8 8 17
12 19 8 2 -5 4 -57 3 -118 -1 -60 2 -122 7 -136 15 -49 89 -59 116 -17 16 26
18 456 2 486 -13 24 -52 35 -83 23 -13 -5 -43 -30 -67 -54 l-44 -46 -38 39
c-76 76 -104 86 -143 47z"/>
<path d="M2341 3394 c-20 -25 -21 -39 -21 -251 0 -284 -9 -269 167 -271 108
-1 125 1 147 19 33 26 35 70 4 99 -18 17 -35 20 -100 20 -74 0 -78 1 -79 23 0
12 0 94 -1 181 0 153 -1 160 -24 182 -31 32 -67 31 -93 -2z"/>
<path d="M3110 3203 c-16 -6 -31 -21 -35 -33 -10 -31 13 -79 41 -86 13 -3 229
-7 480 -8 l456 -1 19 -24 c28 -35 24 -47 -26 -71 -98 -47 -164 -166 -152 -272
11 -93 85 -191 165 -220 18 -7 32 -19 32 -28 0 -19 -35 -59 -53 -61 -7 -1
-680 -2 -1497 -3 l-1485 -2 -40 -21 c-69 -36 -125 -114 -125 -172 0 -13 -11
-23 -34 -31 -49 -16 -117 -80 -146 -136 -18 -37 -24 -65 -24 -114 0 -111 53
-199 149 -246 36 -17 55 -33 55 -44 0 -60 61 -139 129 -169 49 -21 62 -21 517
-21 460 0 468 0 490 21 26 24 26 71 1 97 -16 16 -56 17 -482 18 l-465 0 -25
24 c-37 34 -31 52 26 79 128 60 183 224 119 356 -25 53 -97 119 -146 135 -34
11 -34 12 -18 41 8 16 26 34 40 39 15 6 601 10 1497 10 944 0 1485 4 1508 10
66 18 149 117 149 177 0 16 11 27 44 41 176 78 217 319 75 447 -22 19 -57 42
-79 51 -29 12 -40 22 -40 38 -1 32 -34 98 -66 128 -65 61 -65 61 -568 62 -328
1 -467 -2 -486 -11z"/>
<path d="M2228 1977 c-12 -4 -26 -14 -32 -23 -8 -10 -11 -149 -11 -450 l0
-436 24 -19 c22 -18 58 -19 1136 -19 1081 0 1113 1 1136 19 l24 19 1 429 c0
257 -3 437 -9 450 -6 13 -19 26 -31 30 -29 10 -2211 10 -2238 0z m2142 -466
c0 -262 -3 -340 -12 -343 -11 -3 -1981 -2 -2025 1 -10 1 -13 78 -12 341 l1
340 1024 0 1024 0 0 -339z"/>
<path d="M2755 1764 c-19 -14 -20 -28 -23 -248 -4 -300 -15 -281 166 -281 114
0 133 2 151 19 27 24 27 70 1 96 -17 17 -33 20 -100 20 l-80 0 -1 53 c-1 137
0 210 5 214 3 3 39 7 81 8 56 2 80 7 95 20 26 23 26 69 0 95 -18 18 -33 20
-147 20 -98 -1 -133 -4 -148 -16z"/>
<path d="M3162 1757 c-20 -21 -22 -34 -22 -148 0 -159 5 -167 125 -171 85 -3
83 -2 76 -57 0 -5 -39 -11 -86 -12 -70 -3 -87 -7 -99 -24 -21 -27 -20 -58 3
-86 18 -23 25 -24 150 -24 176 0 173 -3 172 170 0 163 -4 168 -117 170 -68 1
-78 4 -85 22 -13 37 4 47 85 48 58 1 79 5 95 19 27 24 27 70 1 96 -18 18 -33
20 -148 20 -121 0 -130 -1 -150 -23z"/>
<path d="M3572 1760 c-20 -19 -22 -30 -22 -150 0 -164 4 -170 122 -170 62 0
78 -3 79 -15 5 -52 9 -50 -78 -55 -91 -6 -123 -22 -123 -64 0 -13 9 -34 19
-47 18 -23 25 -24 149 -24 177 0 172 -5 172 170 0 163 -3 168 -113 170 -83 2
-94 6 -92 34 2 31 9 34 89 35 57 2 80 6 96 21 26 23 26 69 0 95 -18 18 -33 20
-148 20 -115 0 -130 -2 -150 -20z"/>
<path d="M1393 940 c-49 -45 -20 -123 46 -123 41 0 71 28 71 67 -1 42 -19 63
-60 71 -28 5 -40 2 -57 -15z"/>
</g>
</svg>
